<svg width="20" height="22" viewBox="0 0 20 22" fill="none" xmlns="http://www.w3.org/2000/svg">
<g filter="url(#filter0_d_220_988)">
<path d="M8.5 1H11.5C11.6326 1 11.7598 0.947322 11.8536 0.853553C11.9473 0.759785 12 0.632608 12 0.5C12 0.367392 11.9473 0.240215 11.8536 0.146447C11.7598 0.0526784 11.6326 0 11.5 0L8.5 0C8.36739 0 8.24021 0.0526784 8.14645 0.146447C8.05268 0.240215 8 0.367392 8 0.5C8 0.632608 8.05268 0.759785 8.14645 0.853553C8.24021 0.947322 8.36739 1 8.5 1V1Z" fill="#FAFAFA"/>
<path d="M10 2C8.81331 2 7.65328 2.35189 6.66658 3.01118C5.67989 3.67047 4.91085 4.60754 4.45673 5.7039C4.0026 6.80026 3.88378 8.00666 4.11529 9.17054C4.3468 10.3344 4.91825 11.4035 5.75736 12.2426C6.59648 13.0818 7.66557 13.6532 8.82946 13.8847C9.99335 14.1162 11.1997 13.9974 12.2961 13.5433C13.3925 13.0892 14.3295 12.3201 14.9888 11.3334C15.6481 10.3467 16 9.18669 16 8C15.9967 6.40972 15.3635 4.88551 14.239 3.76101C13.1145 2.6365 11.5903 2.0033 10 2V2ZM12.8313 5.88125L10.3563 8.35625C10.2607 8.44866 10.1329 8.50032 10 8.50032C9.86706 8.50032 9.73932 8.44866 9.64375 8.35625C9.54986 8.26145 9.49719 8.13342 9.49719 8C9.49719 7.86658 9.54986 7.73855 9.64375 7.64375L12.1188 5.16875C12.1636 5.11413 12.2194 5.06949 12.2825 5.03772C12.3456 5.00595 12.4147 4.98775 12.4852 4.98428C12.5558 4.98082 12.6264 4.99216 12.6923 5.0176C12.7582 5.04303 12.8181 5.08198 12.8681 5.13195C12.918 5.18192 12.957 5.24179 12.9824 5.30772C13.0078 5.37365 13.0192 5.44418 13.0157 5.51476C13.0123 5.58534 12.9941 5.65441 12.9623 5.71753C12.9305 5.78065 12.8859 5.83642 12.8313 5.88125V5.88125Z" fill="#FAFAFA"/>
</g>
<defs>
<filter id="filter0_d_220_988" x="-2" y="0" width="24" height="24" filterUnits="userSpaceOnUse" color-interpolation-filters="sRGB">
<feFlood flood-opacity="0" result="BackgroundImageFix"/>
<feColorMatrix in="SourceAlpha" type="matrix" values="0 0 0 0 0 0 0 0 0 0 0 0 0 0 0 0 0 0 127 0" result="hardAlpha"/>
<feOffset dy="4"/>
<feGaussianBlur stdDeviation="2"/>
<feComposite in2="hardAlpha" operator="out"/>
<feColorMatrix type="matrix" values="0 0 0 0 0 0 0 0 0 0 0 0 0 0 0 0 0 0 0.25 0"/>
<feBlend mode="normal" in2="BackgroundImageFix" result="effect1_dropShadow_220_988"/>
<feBlend mode="normal" in="SourceGraphic" in2="effect1_dropShadow_220_988" result="shape"/>
</filter>
</defs>
</svg>
